# xmcd
#
# Track frame offsets:
#	150
#	8475
#	39000
#	80625
#	104700
#	130350
#	168750
#
# Disc length: 2630 seconds
#
# Revision: 1
# Processed by: cddbd v1.5.1PL2 Copyright (c) Steve Scherf et al.
# Submitted via: EasyCDDAExtractor 9.0.0.1
#
DISCID=4a0a4407
DTITLE=Tony Martin - Folkets Park Växjö 13-04-06 Disc 2
DYEAR=2006
DGENRE=Hard Rock
TTITLE0=Band Introductions
TTITLE1=Children Of The Sea
TTITLE2=War Pigs
TTITLE3=Raising Hell
TTITLE4=Scream
TTITLE5=The Shining
TTITLE6=Headless Cross
EXTD=
EXTT0=
EXTT1=
EXTT2=
EXTT3=
EXTT4=
EXTT5=
EXTT6=
PLAYORDER=
